<?xml version="1.0" standalone="no"?>
<!DOCTYPE svg PUBLIC "-//W3C//DTD SVG 20010904//EN"
 "http://www.w3.org/TR/2001/REC-SVG-20010904/DTD/svg10.dtd">
<svg version="1.0" xmlns="http://www.w3.org/2000/svg"
 width="225.000000pt" height="225.000000pt" viewBox="0 0 225.000000 225.000000"
 preserveAspectRatio="xMidYMid meet">
<metadata>
Created by potrace 1.10, written by Peter Selinger 2001-2011
</metadata>
<g transform="translate(0.000000,225.000000) scale(0.100000,-0.100000)"
fill="#000000" stroke="none">
<path d="M930 2190 c0 -57 -13 -79 -27 -44 -5 13 -7 13 -14 2 -12 -18 -11 -40
1 -33 6 3 10 -1 10 -9 0 -9 4 -16 9 -16 5 0 11 -8 14 -17 2 -10 7 9 12 41 l8
60 23 -60 c16 -42 23 -52 23 -34 1 14 6 32 11 40 8 12 10 11 10 -6 0 -11 7
-29 15 -40 14 -18 14 -18 15 8 0 15 -8 41 -19 58 l-19 31 -6 -26 c-10 -39 -24
-22 -38 45 -6 33 -16 60 -20 60 -4 0 -8 -27 -8 -60z"/>
<path d="M1100 2226 c0 -13 -3 -33 -6 -43 -5 -15 -4 -15 5 -3 9 12 11 10 12
-12 1 -16 3 -32 4 -38 1 -5 4 -25 5 -42 2 -24 4 -27 7 -11 2 12 11 27 19 33
12 10 14 8 14 -14 0 -14 4 -26 9 -26 13 0 22 43 11 54 -6 6 -10 19 -11 31 0
19 -1 19 -11 -2 -6 -13 -15 -23 -20 -23 -4 0 -9 10 -9 23 -2 21 -3 38 -7 80
-3 26 -22 20 -22 -7z"/>
<path d="M1279 2213 c-6 -21 -16 -44 -22 -51 -7 -9 -6 -11 5 -7 11 5 13 -5 10
-51 -2 -38 0 -54 7 -49 6 3 11 13 11 21 0 23 19 16 26 -11 5 -22 7 -23 22 -9
10 10 12 18 5 22 -6 4 -12 16 -15 27 -2 11 -11 19 -19 18 -12 -3 -14 8 -11 62
2 36 2 65 -1 65 -3 0 -11 -17 -18 -37z"/>
<path d="M737 2130 l6 -95 -31 29 -31 29 1 -34 c1 -19 3 -28 6 -21 3 10 13 6
33 -14 l29 -28 0 75 1 74 27 -57 c30 -65 42 -72 42 -28 0 17 -5 30 -12 30 -7
1 -27 31 -45 68 l-32 67 6 -95z"/>
<path d="M1475 2196 c-23 -27 -46 -76 -35 -76 6 0 8 -4 5 -10 -11 -18 -33
-100 -27 -100 4 0 15 14 24 31 19 33 46 32 28 -1 -5 -10 -10 -27 -10 -37 0
-15 3 -14 24 7 13 14 19 28 13 31 -5 4 -6 21 -2 40 7 32 6 33 -8 14 -25 -32
-30 -11 -12 50 17 59 17 71 0 51z"/>
<path d="M1048 2172 c-4 -13 0 -38 7 -55 l14 -32 9 25 c7 18 6 28 -4 35 -7 5
-14 19 -16 30 -4 18 -4 18 -10 -3z"/>
<path d="M1198 2148 c-4 -9 -2 -32 4 -52 11 -35 12 -35 23 -13 8 17 8 24 -1
32 -7 6 -14 19 -16 30 -3 17 -5 18 -10 3z"/>
<path d="M1620 2117 c-32 -44 -73 -87 -83 -87 -4 0 -4 12 -1 28 5 22 4 25 -7
14 -7 -7 -14 -31 -16 -55 l-2 -42 39 44 c46 50 47 49 20 -14 -26 -61 -25 -64
10 -30 33 31 38 25 16 -17 -17 -33 -8 -36 22 -8 35 33 38 24 14 -39 -3 -8 11
-2 31 14 44 32 58 27 34 -14 -22 -37 -21 -44 2 -32 24 13 33 3 19 -22 -9 -17
-8 -19 7 -14 9 4 22 7 28 7 8 0 7 3 -2 9 -10 6 -11 13 -2 29 16 29 14 34 -9
22 -28 -15 -25 -2 15 65 20 32 34 60 32 61 -2 2 -28 -18 -58 -46 -56 -52 -76
-62 -64 -32 17 42 18 52 1 46 -9 -3 -16 -10 -16 -15 0 -5 -7 -9 -15 -9 -17 0
-20 16 -5 25 6 3 10 13 10 22 0 13 -3 13 -15 3 -27 -22 -27 -4 0 55 14 32 24
60 22 61 -2 2 -14 -11 -27 -29z"/>
<path d="M820 2127 c0 -11 10 -32 21 -49 17 -23 24 -27 30 -16 12 18 11 31 -1
23 -5 -3 -19 9 -30 27 -14 24 -20 28 -20 15z"/>
<path d="M1365 2109 c-12 -27 -8 -79 5 -79 14 0 18 24 11 65 -6 37 -7 38 -16
14z"/>
<path d="M510 2103 c0 -7 9 -40 21 -73 11 -33 19 -67 17 -76 -3 -14 -7 -13
-31 6 -15 12 -30 21 -32 19 -7 -8 8 -59 17 -59 5 0 6 5 3 11 -4 6 12 1 34 -11
l42 -21 -7 28 c-4 15 -15 51 -25 78 -11 28 -19 51 -19 52 0 1 27 -26 61 -60
l61 -62 -7 38 c-8 41 7 51 25 17 6 -11 15 -18 20 -15 11 7 1 45 -13 45 -6 0
-19 7 -29 17 -17 15 -18 15 -18 -10 0 -15 -3 -27 -7 -27 -4 0 -31 26 -60 58
-29 31 -53 51 -53 45z"/>
<path d="M1035 2032 c-211 -17 -450 -130 -588 -277 -41 -44 -156 -213 -176
-260 -69 -161 -89 -326 -62 -510 15 -98 34 -158 79 -250 52 -106 56 -112 118
-187 258 -310 699 -422 1072 -272 48 20 123 59 167 89 406 270 505 846 217
1264 -58 83 -173 198 -243 243 -106 67 -236 122 -339 143 -45 10 -206 21 -245
17z m262 -43 c263 -62 488 -239 614 -485 66 -129 92 -240 92 -404 0 -118 -3
-147 -27 -228 -66 -228 -182 -386 -371 -507 -115 -74 -315 -135 -440 -135 -47
0 -54 2 -49 17 5 16 4 16 -10 -1 -13 -16 -23 -18 -77 -12 -138 16 -300 79
-428 166 -68 46 -201 177 -222 218 -8 15 -16 29 -19 32 -7 6 -50 80 -50 85 0
3 7 2 16 -2 14 -5 15 -3 4 17 -8 15 -9 25 -2 32 13 13 42 3 42 -13 0 -6 -7 -8
-16 -5 -10 4 -14 1 -12 -6 3 -7 13 -15 23 -17 15 -2 17 2 12 28 -7 32 9 44 20
15 3 -8 11 -13 18 -10 14 5 61 -72 50 -82 -4 -4 -15 4 -26 17 -20 25 -49 23
-49 -4 0 -12 6 -15 19 -10 25 8 39 -15 17 -27 -9 -5 -16 -14 -16 -19 0 -6 17
0 37 12 l36 23 34 -39 c36 -42 41 -55 18 -55 -9 0 -20 11 -25 25 -13 34 -39
43 -57 19 -15 -21 -14 -56 3 -61 7 -2 10 5 7 20 -6 29 7 40 27 26 12 -8 12
-12 3 -16 -21 -8 -15 -23 9 -23 20 0 21 -1 3 -20 -30 -33 -9 -34 27 -1 19 17
36 27 41 22 6 -6 -5 -22 -24 -39 -19 -17 -30 -34 -26 -38 4 -4 22 6 39 23 l32
32 38 -30 c21 -17 38 -35 38 -40 0 -17 -25 -9 -38 11 -14 23 -50 27 -58 5 -8
-21 4 -67 16 -60 6 4 7 13 1 24 -13 23 0 43 19 30 13 -8 13 -10 0 -19 -12 -8
-9 -10 13 -10 30 0 35 -11 12 -30 -8 -7 -15 -16 -15 -21 0 -19 16 -7 38 26 12
19 29 35 37 35 26 0 16 14 -41 55 -87 62 -170 166 -226 283 -30 60 -30 63 -13
82 21 23 13 39 -9 21 -13 -11 -16 -8 -21 16 -4 15 -9 35 -12 43 -5 13 -7 12
-10 -2 -5 -19 -30 -31 -38 -18 -4 6 -13 10 -21 10 -19 0 -18 -36 1 -44 22 -8
18 -25 -7 -35 -40 -15 -1 -22 41 -7 23 7 43 10 46 6 6 -10 1 -14 -48 -29 -20
-7 -35 -16 -32 -21 3 -5 21 -2 40 6 44 18 42 19 60 -16 9 -16 11 -30 6 -30 -5
0 -11 5 -13 11 -3 9 -15 9 -43 3 -33 -8 -41 -15 -45 -39 l-5 -30 -18 43 c-63
156 -85 371 -52 518 65 299 276 543 560 650 149 57 347 70 502 33z"/>
<path d="M1220 1971 c5 -11 10 -21 10 -23 0 -2 -63 -3 -140 -3 -105 0 -140 3
-140 13 0 16 -58 15 -88 -1 -13 -7 -29 -26 -37 -41 -18 -34 -18 -37 -3 -33 6
1 19 -17 28 -41 9 -23 19 -40 23 -36 3 4 3 14 -2 23 -5 9 -11 28 -14 42 -6 23
-3 27 21 33 15 3 37 8 50 12 12 3 22 2 22 -4 0 -5 -14 -12 -31 -16 -26 -5 -30
-10 -27 -33 3 -26 7 -28 46 -29 l42 -1 -6 47 -6 47 38 6 c66 11 126 8 122 -5
-3 -7 -15 -13 -29 -13 -18 0 -25 -6 -27 -26 -3 -22 2 -27 25 -32 15 -3 35 -8
44 -12 11 -4 15 0 14 12 -1 21 -9 25 -30 17 -20 -8 -48 3 -40 16 3 5 19 10 35
10 19 0 31 6 35 19 5 16 11 17 48 10 23 -4 45 -8 50 -9 4 0 7 -5 7 -10 0 -7
-13 -9 -33 -5 -47 9 -66 -14 -43 -50 9 -14 21 -23 27 -19 7 4 5 12 -5 23 -23
25 -20 33 12 29 23 -2 27 -7 25 -30 -3 -43 14 -33 22 12 4 22 14 44 23 49 15
8 13 11 -10 20 -15 5 -32 19 -38 31 -6 11 -15 20 -21 20 -6 0 -6 -7 1 -19z
m-285 -30 c-6 -4 -25 -13 -42 -19 -36 -12 -54 1 -26 17 22 13 81 15 68 2z m15
-70 c0 -6 -4 -12 -9 -15 -13 -8 -42 4 -35 15 7 12 44 12 44 0z"/>
<path d="M1353 1913 c-23 -8 -14 -43 12 -53 14 -5 25 -14 25 -20 0 -13 -27
-13 -35 0 -8 13 -25 13 -25 0 0 -6 11 -16 25 -22 21 -10 29 -9 43 6 16 16 15
19 -13 43 l-30 25 28 -5 c15 -2 30 -1 32 3 6 10 -46 28 -62 23z"/>
<path d="M996 1894 c-15 -38 23 -46 41 -9 10 23 9 25 -12 25 -13 0 -26 -7 -29
-16z"/>
<path d="M655 1819 c-64 -42 -131 -101 -182 -161 -19 -23 -42 -38 -60 -40 -34
-4 -71 -63 -58 -94 4 -10 7 -25 6 -31 -2 -16 16 -17 21 -2 2 7 16 4 38 -10 45
-27 74 -28 40 -1 -14 11 -31 20 -38 20 -23 0 -23 26 -2 64 12 20 25 36 29 36
19 0 19 -16 0 -36 -23 -25 -20 -50 7 -61 10 -4 26 5 44 25 l28 31 -35 29 -35
28 26 30 c25 27 27 27 21 6 -5 -17 -1 -28 12 -37 29 -23 51 -17 68 15 9 17 20
28 25 25 21 -13 8 24 -16 49 -26 25 -26 27 -9 46 10 11 28 20 39 20 21 -1 21
-1 -2 -20 l-22 -19 20 -14 c24 -16 59 -11 67 9 3 8 11 14 19 14 18 0 18 15 -2
45 -15 24 -12 45 7 45 5 0 9 -6 9 -14 0 -8 9 -24 21 -37 18 -21 20 -21 13 -4
-4 11 -12 35 -18 53 -6 17 -13 32 -16 31 -3 0 -32 -18 -65 -40z m28 -33 c8
-19 -15 -60 -36 -64 -9 -2 -17 1 -17 7 0 6 5 11 10 11 6 0 10 14 10 30 0 31
23 42 33 16z m-107 -130 c-4 -22 -13 -36 -21 -36 -17 0 -20 16 -5 25 6 3 10
12 10 18 0 7 -5 4 -11 -5 -5 -10 -15 -18 -21 -18 -9 0 -9 3 0 12 7 7 12 22 12
33 0 30 11 38 28 21 10 -10 13 -25 8 -50z m-170 -84 c-20 -39 -36 -49 -36 -23
0 19 39 65 48 57 2 -2 -4 -18 -12 -34z m78 -35 c-7 -20 -34 -23 -34 -4 0 19
22 39 32 29 5 -5 6 -16 2 -25z"/>
<path d="M1480 1851 c0 -6 5 -13 10 -16 15 -9 2 -25 -21 -25 -36 0 -19 -35 19
-38 35 -4 46 -32 12 -32 -13 0 -20 -7 -20 -19 0 -21 27 -47 38 -37 4 4 -1 13
-11 20 -21 16 -22 28 -2 24 8 -2 27 12 42 30 l28 33 38 -31 c20 -18 34 -36 31
-42 -3 -5 -15 0 -26 12 -30 32 -62 23 -66 -17 -2 -19 1 -33 7 -33 6 0 11 11
11 25 0 28 21 33 40 10 10 -13 9 -19 -5 -35 -10 -11 -15 -23 -11 -27 4 -5 20
7 34 25 28 33 46 40 57 22 9 -14 -14 -42 -27 -34 -6 4 -14 0 -19 -7 -14 -23
-10 -32 11 -26 27 7 47 -18 30 -38 -19 -23 -1 -18 31 10 19 15 36 22 47 18 15
-6 14 -3 -3 18 -42 51 -131 130 -195 174 -71 47 -80 51 -80 36z m57 -42 c6 -6
9 -17 6 -25 -7 -18 -33 -5 -33 17 0 21 11 24 27 8z m182 -176 c-15 -18 -34 -1
-25 22 5 14 9 15 21 5 12 -10 13 -16 4 -27z"/>
<path d="M1003 1808 l-73 -10 0 -44 c0 -28 -4 -44 -12 -44 -7 0 -37 -10 -66
-22 l-54 -23 -18 23 c-26 31 -45 28 -101 -20 -52 -46 -58 -61 -33 -89 14 -16
12 -22 -28 -78 -44 -62 -47 -64 -103 -46 -17 5 -23 -3 -43 -50 -29 -72 -28
-81 9 -97 27 -12 30 -16 23 -43 -4 -16 -10 -59 -13 -95 -6 -63 -7 -65 -40 -74
l-33 -9 7 -51 c12 -93 13 -96 54 -96 35 -1 37 -3 72 -77 l37 -77 -24 -19 c-13
-10 -24 -23 -24 -29 0 -6 19 -34 42 -63 l43 -52 30 23 30 23 67 -50 c64 -48
66 -51 57 -81 -4 -17 -6 -34 -4 -39 6 -8 109 -49 126 -49 5 0 15 14 21 30 l10
31 72 -6 c94 -9 92 -8 100 -49 6 -31 11 -36 36 -36 16 0 50 5 77 11 48 11 48
11 45 49 l-4 37 76 28 77 28 22 -22 c13 -11 27 -21 31 -21 17 0 106 73 106 87
0 3 -7 17 -16 32 -16 27 -15 29 20 75 19 26 39 54 44 62 8 14 13 14 44 1 l35
-15 21 52 c37 93 37 96 2 109 -30 12 -31 13 -25 57 15 109 15 109 49 112 l31
3 -2 60 c-3 96 -8 105 -51 105 -37 0 -37 1 -61 66 l-23 65 26 28 26 27 -48 66
-49 66 -31 -20 -31 -19 -66 52 c-41 33 -64 58 -60 67 18 47 17 60 -7 67 -12 4
-44 18 -69 30 l-46 22 -19 -35 c-17 -32 -21 -33 -54 -27 -19 4 -55 10 -80 14
-42 6 -46 9 -54 44 -5 20 -14 36 -20 36 -6 -1 -44 -6 -83 -11z m47 -62 c0 -17
-6 -21 -34 -22 -25 0 -36 4 -39 18 -3 11 0 18 10 18 8 0 12 4 9 8 -3 5 8 6 25
4 22 -3 29 -10 29 -26z m333 -54 c-6 -14 -4 -15 8 -5 12 10 15 8 15 -7 0 -15
-4 -16 -18 -9 -10 6 -23 7 -28 4 -6 -3 -7 1 -4 10 4 11 2 14 -9 9 -17 -6 -32
11 -22 25 3 6 17 6 35 0 21 -8 27 -15 23 -27z m-198 -3 c132 -15 232 -66 333
-167 80 -80 91 -95 118 -152 60 -131 75 -239 50 -370 -49 -264 -252 -444 -525
-467 -118 -10 -284 38 -381 110 -95 70 -178 182 -224 302 -27 72 -28 277 -2
355 63 184 216 326 403 376 103 27 110 27 228 13z m-420 -40 c3 -5 -1 -6 -9
-3 -9 3 -16 1 -16 -5 0 -6 5 -11 12 -11 6 0 3 -6 -7 -14 -11 -8 -25 -11 -33
-9 -8 4 -12 0 -10 -8 1 -8 -2 -14 -7 -14 -5 0 -8 6 -7 14 2 8 -1 10 -8 6 -9
-6 -9 -2 -1 13 6 12 17 24 24 28 9 6 9 4 2 -7 -7 -10 -5 -10 5 1 16 18 47 23
55 9z m873 -156 c24 -35 27 -49 12 -58 -6 -4 -7 1 -3 11 4 11 3 15 -5 10 -6
-4 -19 5 -29 20 -37 57 -15 73 25 17z m-1099 -125 c10 -18 11 -20 0 -10 -19
17 -34 15 -19 -3 7 -9 11 -18 8 -20 -10 -10 -28 23 -22 39 8 22 17 20 33 -6z
m1224 -185 c5 -24 3 -33 -7 -33 -14 0 -24 41 -18 74 5 25 16 6 25 -41z m-1267
-149 c-3 -9 -6 -20 -6 -25 0 -6 -4 -7 -10 -4 -16 10 -12 45 6 45 11 0 14 -5
10 -16z m136 -301 c0 -10 1 -23 1 -30 0 -6 5 -9 12 -7 7 3 15 1 19 -4 3 -5 -5
-7 -17 -6 -12 1 -25 3 -29 3 -5 1 -8 10 -8 22 0 11 -4 18 -9 14 -5 -3 -13 0
-17 6 -4 7 -3 9 4 5 6 -3 13 -2 17 4 10 16 25 12 27 -7z m902 -128 c-5 -11
-11 -11 -31 -2 -22 10 -23 12 -6 18 24 8 43 0 37 -16z m-285 -132 c3 -2 -6 -2
-20 1 -13 2 -30 -1 -36 -6 -9 -8 -13 -6 -13 6 0 10 5 14 10 11 6 -3 10 -1 10
5 0 9 32 -1 49 -17z"/>
<path d="M1132 1518 c-70 -87 -112 -262 -92 -385 5 -31 7 -59 5 -61 -3 -3 -19
25 -36 62 -26 56 -31 76 -27 122 3 29 2 54 -2 54 -4 0 -14 -31 -24 -70 -30
-126 -5 -221 80 -306 42 -43 43 -46 29 -68 -24 -37 -21 -124 6 -182 20 -41 30
-50 58 -55 51 -10 87 29 96 104 10 75 0 122 -32 151 l-25 24 41 23 c58 32 86
92 77 167 -7 57 -38 142 -53 142 -4 0 -6 -27 -5 -60 3 -46 -1 -71 -17 -102
-14 -30 -17 -44 -9 -49 6 -4 8 -15 4 -24 -3 -10 -9 -15 -13 -12 -3 4 -12 -5
-20 -19 -16 -33 -16 -35 2 -28 8 4 15 1 15 -4 0 -6 -13 -10 -30 -10 -16 1 -30
4 -30 9 0 18 13 38 21 33 5 -3 9 1 9 9 0 8 6 17 13 20 24 9 14 140 -18 242
-32 103 -40 229 -16 259 8 9 12 19 9 21 -3 3 -10 0 -16 -7z m-16 -244 c-5 -17
-3 -23 4 -19 5 3 10 -1 10 -9 0 -9 -4 -16 -10 -16 -5 0 -10 -4 -10 -10 0 -5 7
-7 15 -4 21 9 19 -10 -5 -31 -19 -18 -20 -17 -21 6 -1 13 -3 38 -4 54 -1 17 2
36 8 43 15 19 20 14 13 -14z m-38 -32 c-1 -10 1 -23 6 -30 13 -22 -4 -29 -20
-8 -9 13 -10 22 -4 26 6 4 8 15 4 25 -5 13 -4 16 5 11 6 -4 11 -15 9 -24z m62
-82 c-12 -16 -25 -30 -30 -30 -5 0 -7 -7 -4 -15 8 -19 -1 -19 -31 1 -14 9 -22
20 -19 26 3 5 12 4 21 -3 12 -11 19 -7 40 19 31 41 52 42 23 2z m6 -32 c-9
-12 -16 -27 -16 -33 0 -5 5 -2 11 8 16 27 28 20 24 -15 -6 -56 -14 -83 -30
-94 -8 -6 -11 -15 -7 -20 4 -4 -1 -2 -10 5 -10 7 -18 22 -18 32 0 11 -3 19 -8
19 -9 0 -32 73 -25 80 3 3 8 -1 10 -7 3 -7 12 -13 20 -13 10 0 14 -6 10 -20
-3 -11 -1 -23 4 -26 5 -3 9 -15 9 -27 0 -16 3 -18 9 -9 4 7 3 33 -2 57 -8 36
-7 48 7 70 10 15 20 24 23 22 3 -3 -2 -16 -11 -29z m-106 -88 c0 -13 5 -17 15
-14 10 4 15 0 15 -15 0 -12 6 -20 13 -18 6 1 11 -4 9 -12 -1 -7 4 -18 11 -25
24 -19 27 -44 6 -49 -10 -3 -17 -1 -14 4 7 11 -9 43 -46 90 -28 35 -40 77 -19
64 6 -3 10 -15 10 -25z m210 -50 c0 -5 -9 -10 -21 -10 -11 0 -18 -4 -14 -9 3
-5 1 -12 -4 -15 -19 -12 -23 16 -5 29 22 17 44 19 44 5z m-128 -130 c13 -20
13 -20 29 1 19 26 43 17 33 -13 -4 -15 -3 -18 7 -13 9 6 11 4 6 -8 -3 -9 -2
-19 3 -22 13 -8 13 -62 0 -70 -6 -4 -8 -10 -5 -14 2 -5 -2 -23 -11 -40 -18
-37 -52 -41 -79 -11 -10 11 -15 20 -11 20 4 0 0 10 -8 22 -28 40 -17 168 14
168 6 0 15 -9 22 -20z"/>
<path d="M1404 1197 c-3 -8 0 -26 6 -41 13 -36 13 -36 -12 -36 -28 0 -42 -10
-51 -32 -7 -20 7 -33 46 -42 22 -5 27 -11 22 -24 -16 -36 -16 -59 -2 -71 13
-10 21 -6 51 19 l35 31 30 -33 c28 -31 31 -32 47 -16 16 15 16 22 6 51 -16 45
-16 44 19 52 17 4 33 13 36 21 8 21 -15 44 -43 44 -23 0 -24 1 -11 28 29 59
-6 82 -56 36 l-29 -26 -27 26 c-29 28 -59 34 -67 13z m163 -44 c-6 -14 -19
-23 -34 -23 -30 0 -29 8 4 42 30 32 48 21 30 -19z m-105 20 c10 -9 18 -22 18
-30 0 -18 -47 -16 -54 3 -16 43 2 58 36 27z m68 -93 c0 -13 -7 -20 -20 -20
-11 0 -23 -1 -27 -2 -13 -5 -15 32 -3 47 16 19 50 2 50 -25z m-96 14 c11 -30
6 -35 -31 -32 -43 4 -55 24 -21 37 34 14 45 13 52 -5z m176 1 c10 -12 7 -16
-16 -25 -20 -8 -29 -8 -35 1 -20 32 26 54 51 24z m-45 -85 c10 -45 -3 -56 -31
-26 -29 30 -29 35 -7 52 23 16 30 11 38 -26z m-86 17 c8 -10 4 -20 -19 -42
-26 -25 -30 -26 -36 -11 -8 22 11 66 30 66 7 0 19 -6 25 -13z"/>
<path d="M613 1173 c-9 -3 -13 -32 -13 -98 0 -123 2 -126 54 -119 26 4 52 1
65 -6 17 -9 26 -9 37 0 9 8 32 10 68 6 l54 -7 4 63 c5 97 -2 146 -20 154 -19
8 -229 14 -249 7z m95 -19 c21 -6 22 -12 22 -88 l0 -82 -55 -2 -55 -1 0 89 0
90 33 0 c17 0 42 -3 55 -6z m136 0 c13 -5 16 -23 16 -95 0 -88 0 -90 -21 -78
-12 6 -36 8 -55 4 l-34 -6 0 84 c0 46 3 87 7 90 8 9 66 9 87 1z"/>
<path d="M1830 1198 c0 -47 12 -60 44 -52 26 6 27 5 24 -27 -3 -32 -5 -34 -35
-31 -46 5 -41 -15 5 -21 49 -6 52 -3 52 44 0 57 28 50 47 -11 l12 -35 -2 45
c-2 41 -4 45 -29 48 -22 3 -28 9 -28 28 0 20 5 24 31 24 17 0 28 4 24 10 -3 6
-22 10 -41 10 -32 0 -34 -2 -34 -35 0 -31 -3 -35 -25 -35 -22 0 -25 4 -25 35
0 19 -4 35 -10 35 -5 0 -10 -15 -10 -32z"/>
<path d="M310 1185 c0 -30 -3 -35 -24 -35 -20 0 -25 6 -29 33 -3 28 -4 26 -5
-10 -2 -41 -1 -43 28 -43 25 0 30 -4 30 -25 0 -21 -5 -25 -30 -25 -16 0 -30
-4 -30 -10 0 -5 18 -10 40 -10 39 0 40 1 40 34 0 20 6 36 14 39 18 7 26 -1 26
-27 0 -12 5 -28 10 -36 7 -11 10 -2 10 33 0 46 -1 47 -30 47 -25 0 -30 4 -30
25 0 21 5 25 29 25 17 0 33 5 36 10 4 6 -12 10 -39 10 -46 0 -46 0 -46 -35z"/>
<path d="M1851 969 c0 -14 -10 -52 -20 -85 -49 -149 -125 -267 -176 -272 -40
-5 -55 -19 -55 -52 0 -21 -11 -34 -52 -63 -77 -52 -101 -61 -126 -48 -13 7
-29 8 -44 2 -28 -11 -30 -46 -5 -85 9 -14 17 -32 17 -41 0 -8 7 -15 15 -15 14
0 14 3 0 30 -8 16 -15 35 -15 43 0 16 47 40 55 28 2 -5 -4 -11 -15 -14 -24 -6
-26 -30 -4 -51 10 -11 21 -13 32 -7 9 4 23 6 30 4 9 -4 7 8 -8 36 -26 51 -19
65 20 43 34 -19 38 -32 13 -33 -15 0 -15 -2 2 -9 28 -12 65 -12 65 0 0 6 -9
10 -19 10 -14 0 -18 5 -14 20 3 11 0 27 -7 35 -10 12 -8 18 11 35 13 10 31 19
39 19 12 0 12 -2 -2 -13 -10 -7 -18 -25 -18 -40 0 -21 5 -26 25 -26 14 0 25 5
25 10 0 6 7 10 15 10 20 0 19 6 -11 45 -34 45 -13 56 25 13 16 -18 32 -30 36
-27 3 4 -7 22 -24 41 l-30 35 29 21 c36 27 49 28 26 3 -11 -13 -15 -27 -11
-40 7 -24 37 -28 55 -6 7 8 16 12 21 9 23 -14 5 19 -23 46 l-33 29 24 23 c22
22 23 22 17 2 -9 -29 28 -63 52 -48 9 6 18 23 20 38 2 19 8 26 17 22 28 -10 3
22 -26 34 -16 7 -29 16 -29 21 0 14 34 10 56 -6 22 -16 34 -19 34 -7 0 5 -16
16 -36 25 -39 19 -40 34 -3 92 17 28 19 28 19 7 0 -12 -5 -31 -12 -41 -9 -15
-9 -23 2 -36 17 -20 54 -16 58 8 3 16 1 17 -17 5 -16 -10 -23 -10 -33 0 -10
10 -8 14 10 18 17 5 21 11 16 30 -6 23 -5 24 21 14 32 -12 35 -12 35 -2 0 5
-18 14 -40 21 -43 13 -49 26 -25 57 14 18 14 18 15 -8 0 -23 5 -28 25 -28 26
0 50 32 41 56 -3 8 1 14 9 14 8 0 15 5 15 10 0 6 -8 10 -19 10 -33 0 -80 21
-84 38 -3 10 -5 7 -6 -9z m54 -43 c17 -12 18 -17 5 -42 l-14 -29 -4 25 c-2 14
-10 29 -18 33 -8 4 -14 12 -14 17 0 14 23 12 45 -4z m-127 -258 c15 -15 16
-55 0 -64 -8 -5 -9 0 -6 14 4 12 2 22 -3 22 -5 0 -9 -4 -9 -10 0 -5 -5 -10
-10 -10 -7 0 -7 6 -2 18 5 9 7 23 5 30 -6 15 9 16 25 0z"/>
<path d="M740 460 c0 -5 8 -13 18 -19 14 -8 15 -12 4 -23 -11 -11 -16 -10 -28
6 -22 31 -24 15 -4 -29 11 -24 19 -33 19 -22 1 20 41 58 53 50 15 -9 8 -35 -7
-29 -18 7 -20 -10 -2 -18 8 -3 6 -9 -7 -20 -17 -14 -18 -16 -3 -16 9 0 17 -4
17 -10 0 -13 -6 -13 -31 0 -13 7 -19 7 -19 1 0 -13 45 -25 60 -16 6 4 8 15 5
25 -6 18 13 70 25 70 17 0 53 -38 46 -48 -10 -17 -26 -15 -26 3 0 8 -4 15 -10
15 -13 0 -13 -4 5 -47 14 -33 28 -38 31 -10 4 37 18 57 40 57 13 0 24 -4 24
-10 0 -5 -9 -10 -19 -10 -29 0 -33 -27 -7 -55 l23 -25 7 39 c10 63 30 65 23 2
-7 -60 7 -61 17 -1 9 57 30 53 23 -5 -4 -25 -3 -45 3 -45 5 0 12 20 16 45 6
44 7 45 45 45 22 0 39 -4 39 -10 0 -5 -14 -10 -31 -10 -24 0 -30 -4 -27 -17 2
-11 14 -19 31 -21 15 -2 27 -8 27 -14 0 -7 -14 -8 -37 -5 -34 6 -35 5 -20 -10
13 -13 23 -15 44 -7 40 14 43 44 4 44 -16 0 -33 4 -36 10 -4 6 8 10 30 10 22
0 34 4 30 10 -3 6 0 10 7 11 7 0 21 2 30 4 25 5 32 -12 11 -24 -28 -16 -3 -46
36 -45 17 1 31 -2 31 -7 0 -5 4 -9 9 -9 5 0 4 20 -1 46 -6 25 -8 48 -5 51 12
11 25 -8 31 -47 3 -22 11 -40 17 -40 6 0 8 9 5 20 -3 11 -9 29 -12 40 -3 12 0
28 8 37 12 15 10 16 -14 10 -15 -4 -55 -10 -88 -14 -55 -5 -63 -4 -76 16 -18
26 -88 30 -98 6 -3 -8 -15 -15 -27 -15 -32 0 -159 40 -208 67 -50 26 -51 26
-51 13z m369 -76 c11 -10 -11 -15 -40 -9 -23 5 -28 10 -18 16 12 7 46 3 58 -7z
m131 -55 c0 -22 -23 -35 -41 -24 -8 6 -7 10 2 16 8 4 15 13 15 19 3 20 4 21
14 15 6 -3 10 -15 10 -26z"/>
<path d="M320 1946 c0 -17 43 -106 52 -106 5 0 1 11 -8 25 -22 34 -11 31 43
-10 54 -42 67 -44 59 -10 -6 23 -4 25 17 20 17 -5 26 -2 30 9 5 12 0 16 -18
16 -13 0 -27 5 -30 10 -3 6 -14 10 -23 10 -12 0 -13 -3 -4 -12 17 -17 15 -38
-3 -38 -8 0 -15 4 -15 8 0 4 -15 16 -32 26 -18 10 -41 28 -50 40 -10 12 -18
17 -18 12z"/>
<path d="M1886 1891 c-16 -11 -31 -28 -32 -38 -2 -10 -8 -19 -13 -21 -6 -2
-11 -9 -11 -15 0 -6 -10 -22 -22 -35 -15 -16 -17 -23 -8 -20 65 23 72 20 45
-16 -22 -30 -18 -36 13 -20 47 24 57 17 27 -21 l-27 -36 29 7 c15 4 45 13 67
21 21 7 41 13 44 13 10 0 -55 -57 -72 -63 -27 -11 -18 -27 16 -27 l31 0 -24
-26 -24 -26 40 7 40 8 -22 -25 c-13 -13 -23 -27 -23 -31 0 -6 63 -2 125 9 28
4 29 4 10 -9 -11 -8 -39 -24 -62 -37 -24 -13 -43 -27 -43 -32 0 -13 37 -9 52
5 21 20 97 67 125 78 46 17 18 20 -70 8 -48 -7 -89 -10 -93 -6 -4 3 4 15 17
26 l24 20 -39 1 -39 0 26 24 c28 26 25 41 -5 25 -11 -6 -23 -8 -26 -4 -7 7 6
20 83 82 39 32 39 32 10 24 -16 -5 -52 -16 -78 -25 -66 -22 -71 -21 -46 14 25
33 21 47 -9 31 -12 -6 -28 -11 -37 -11 -13 0 -14 4 -4 23 7 12 17 25 23 29 6
4 8 10 4 13 -3 4 -18 -1 -32 -10 -14 -10 -26 -13 -26 -8 0 10 26 50 52 77 15
17 24 36 16 36 -2 0 -16 -9 -32 -19z"/>
<path d="M1767 1873 c-2 -5 -3 -15 -2 -23 0 -8 -3 -18 -8 -21 -5 -4 -8 -11 -6
-17 2 -6 21 0 44 14 24 16 31 23 17 19 -21 -6 -23 -4 -17 14 4 15 2 21 -9 21
-8 0 -17 -3 -19 -7z"/>
<path d="M323 1777 c2 -12 8 -30 12 -41 7 -16 5 -17 -24 -11 -30 6 -32 6 -25
-19 8 -34 -3 -33 -78 4 -33 17 -62 30 -64 30 -13 0 1 -22 36 -58 22 -23 45
-52 51 -63 10 -20 9 -21 -14 -15 -14 3 -28 2 -31 -3 -7 -11 19 -22 61 -27 l33
-3 -40 54 c-46 62 -49 73 -17 53 12 -8 37 -20 56 -26 l33 -12 -6 35 c-7 34 -7
35 20 25 35 -14 40 -7 24 30 -16 39 -9 45 29 25 33 -16 35 -14 24 23 -3 14 -9
19 -12 13 -5 -7 -18 -8 -40 -1 -31 9 -33 8 -28 -13z"/>
<path d="M220 1552 c0 -7 -13 -12 -29 -12 -24 0 -28 -3 -24 -20 6 -23 -2 -24
-66 -9 -24 5 -46 8 -48 5 -8 -7 37 -27 70 -32 18 -2 50 -6 72 -10 l40 -6 -24
25 -23 26 37 3 37 3 -21 19 c-12 11 -21 14 -21 8z"/>
<path d="M2045 1445 c-31 -32 -32 -45 -2 -45 l22 0 -25 -20 c-14 -10 -23 -21
-20 -23 10 -9 110 -14 110 -6 0 5 -13 9 -30 9 -34 0 -37 6 -13 32 15 17 15 18
-5 18 -26 0 -39 18 -18 26 17 6 30 34 16 34 -5 0 -21 -11 -35 -25z"/>
<path d="M157 1431 c4 -15 -1 -16 -33 -13 -41 5 -40 -12 2 -28 29 -11 32 -40
4 -40 -11 0 -20 -5 -20 -11 0 -8 12 -10 36 -6 48 8 52 14 26 33 -25 18 -20 38
8 29 31 -10 31 10 1 33 -25 19 -28 19 -24 3z"/>
<path d="M2140 1351 c0 -5 6 -12 13 -14 7 -4 6 -6 -4 -6 -9 -1 -35 -9 -58 -19
-41 -19 -45 -32 -8 -32 16 0 17 -3 7 -15 -7 -8 -19 -15 -26 -15 -26 0 -14 -18
16 -25 42 -9 45 -21 10 -35 -17 -7 -30 -16 -30 -20 0 -9 80 -23 88 -15 3 3 -4
5 -16 5 -29 0 -28 18 3 32 30 13 25 23 -15 31 -37 8 -38 20 -2 37 22 11 24 14
9 18 -33 7 -12 26 54 49 35 12 60 22 54 23 -68 8 -95 8 -95 1z"/>
<path d="M124 1309 c-4 -7 -25 -9 -56 -7 -27 3 -51 2 -53 -2 -3 -4 20 -18 50
-30 30 -12 55 -26 55 -30 0 -5 -15 -13 -32 -20 l-33 -11 38 -16 c30 -12 35
-18 26 -29 -6 -8 -18 -14 -25 -14 -17 0 -18 -17 -1 -23 19 -8 -11 -26 -55 -33
-38 -7 -53 -24 -20 -24 9 0 28 -3 42 -6 18 -4 21 -3 11 4 -15 11 -8 14 57 27
39 8 41 18 5 32 l-28 10 28 8 c27 7 38 35 14 35 -7 0 -19 6 -25 12 -10 10 -6
15 20 24 l33 11 -50 26 -50 26 35 2 c19 1 44 0 55 -1 20 -2 20 -2 1 19 -22 24
-32 26 -42 10z"/>
<path d="M2170 1130 c-19 -5 -53 -12 -75 -16 l-40 -7 35 -14 35 -15 -35 -15
-35 -15 40 -18 c22 -10 32 -19 23 -19 -9 -1 -29 -6 -45 -12 -28 -11 -27 -12
37 -34 l65 -23 -50 -2 c-27 -1 -56 -2 -62 -1 -24 3 -13 -17 12 -23 35 -9 31
-26 -5 -26 -37 0 -39 -13 -4 -29 23 -10 26 -9 21 4 -5 11 1 15 25 15 25 0 28
2 19 14 -17 21 -1 27 63 23 31 -2 56 -1 56 2 0 4 -29 17 -65 29 -74 27 -87 39
-50 48 33 8 32 20 -6 33 -32 11 -31 31 2 31 23 0 24 9 2 25 -14 10 -6 14 50
25 37 8 67 17 67 22 0 10 -33 9 -80 -2z"/>
<path d="M106 1046 c3 -9 -5 -16 -23 -21 l-28 -8 30 -8 c16 -5 32 -5 35 0 3 4
16 14 30 21 23 13 24 14 5 21 -33 13 -55 10 -49 -5z"/>
<path d="M134 994 c4 -10 -2 -23 -16 -35 -20 -16 -20 -18 -5 -19 33 0 16 -20
-45 -52 -49 -25 -58 -33 -41 -36 11 -2 44 9 72 25 29 15 61 32 71 38 27 13 25
25 -5 25 -31 0 -31 7 -4 29 l21 17 -27 12 c-24 11 -27 11 -21 -4z"/>
<path d="M160 851 c0 -11 -9 -23 -20 -26 -28 -9 -25 -25 5 -25 28 0 32 -12 10
-34 -20 -20 -19 -26 5 -26 32 0 23 -17 -27 -51 -60 -40 -57 -38 -52 -44 3 -2
37 4 75 15 82 24 74 23 74 6 0 -8 -7 -16 -15 -20 -25 -9 -17 -27 9 -20 31 8
43 -12 20 -37 -17 -19 -16 -19 14 -13 18 4 32 2 32 -2 0 -5 -20 -31 -45 -58
-25 -27 -43 -51 -41 -53 2 -2 31 8 65 23 34 15 64 24 67 21 3 -3 -2 -19 -11
-36 -17 -34 -12 -37 25 -16 36 20 43 18 36 -10 -4 -14 -2 -25 4 -25 20 0 9
-26 -30 -74 -22 -26 -40 -50 -40 -52 0 -11 18 -1 46 26 18 16 34 26 37 23 3
-3 3 4 1 15 -4 12 0 22 10 25 9 4 16 13 16 20 0 8 7 20 15 27 21 18 13 22 -18
11 -25 -10 -26 -9 -17 15 6 14 10 28 10 30 0 5 -24 -1 -59 -14 -10 -4 -9 2 3
26 9 17 16 33 16 35 0 7 -77 -17 -86 -26 -4 -4 -11 -7 -16 -7 -12 0 5 29 37
63 l26 27 -31 0 c-34 0 -38 14 -13 43 17 18 17 19 -21 12 -36 -7 -38 -7 -27
13 6 11 16 22 23 25 7 2 10 7 7 11 -4 4 -33 0 -65 -8 -32 -8 -60 -14 -62 -11
-2 2 17 18 42 37 53 39 57 50 16 42 -36 -8 -38 1 -8 33 l21 23 -33 0 -34 0 29
30 29 30 -27 0 c-20 0 -27 -5 -27 -19z"/>
<path d="M2094 840 c-5 -5 -25 -10 -44 -12 l-35 -3 58 -34 c64 -37 68 -48 11
-32 -23 6 -43 7 -53 1 -9 -5 -11 -10 -5 -10 7 0 15 -7 18 -16 5 -14 1 -16 -24
-11 -30 7 -30 6 -14 -18 16 -25 16 -25 -17 -25 l-33 0 44 -45 c28 -28 38 -45
29 -45 -9 0 -19 3 -23 7 -3 4 -22 12 -41 19 -32 11 -34 10 -25 -7 6 -10 15
-21 20 -24 19 -12 11 -26 -9 -15 -11 5 -27 10 -36 10 -14 0 -14 -3 1 -26 12
-18 19 -22 25 -13 6 10 13 10 33 1 25 -11 38 0 16 13 -14 9 -12 25 3 25 6 0
34 -12 62 -25 27 -13 51 -22 53 -20 2 2 -22 29 -54 59 -54 51 -57 62 -16 57
14 -2 16 15 2 24 -20 13 -10 27 15 21 27 -7 32 3 13 22 -16 16 17 16 96 1 32
-6 60 -8 63 -6 2 3 -22 18 -53 33 -82 41 -94 48 -94 56 0 10 38 20 50 13 5 -3
10 -2 10 2 0 14 -37 32 -46 23z"/>
<path d="M1890 519 c0 -19 25 -35 59 -37 34 -3 34 -2 16 18 -10 11 -20 18 -23
16 -2 -3 -15 -1 -28 4 -16 6 -24 6 -24 -1z"/>
<path d="M1830 473 c0 -17 18 -35 29 -29 7 5 9 1 5 -8 -8 -20 -19 -20 -51 1
l-26 17 18 -35 c11 -19 20 -28 23 -21 3 10 9 10 27 -2 25 -16 41 -10 24 10
-21 26 10 23 65 -6 31 -17 56 -27 56 -24 0 12 -48 63 -54 57 -3 -4 -28 6 -55
20 -52 29 -61 32 -61 20z"/>
<path d="M1750 408 c0 -3 9 -22 20 -44 16 -33 19 -35 20 -15 0 22 1 23 25 7
13 -9 30 -16 36 -16 20 0 -11 30 -50 48 -20 9 -39 18 -43 20 -5 2 -8 2 -8 0z"/>
<path d="M455 378 c-16 -11 -22 -18 -12 -14 12 4 17 0 17 -14 0 -21 15 -27 25
-10 13 22 27 9 22 -19 -5 -25 -4 -28 15 -23 17 4 19 2 13 -19 -4 -13 -15 -42
-26 -63 -10 -22 -16 -42 -14 -44 6 -7 51 50 48 60 -2 4 6 30 17 58 21 53 20
56 -12 39 -20 -11 -21 -9 -15 20 l7 31 -31 -15 c-29 -16 -30 -16 -23 10 7 29
8 29 -31 3z"/>
<path d="M1713 353 c2 -10 8 -27 13 -37 7 -18 4 -18 -26 4 -28 20 -32 21 -27
6 4 -10 7 -25 7 -34 0 -14 2 -15 10 -2 7 12 12 12 29 -4 21 -19 21 -19 21 2 0
12 3 22 7 22 4 0 31 -23 60 -52 35 -35 53 -47 53 -36 0 9 -5 20 -10 23 -6 3
-19 23 -31 43 -11 20 -18 28 -14 18 5 -17 3 -17 -12 -5 -10 7 -30 26 -44 41
-30 32 -44 36 -36 11z"/>
<path d="M619 294 c-17 -21 -21 -100 -3 -82 11 12 29 98 20 98 -2 0 -10 -7
-17 -16z"/>
<path d="M1626 283 c4 -16 13 -45 21 -67 7 -21 13 -41 13 -44 0 -2 -19 18 -42
47 -23 28 -45 51 -50 51 -4 0 -8 -12 -8 -27 l0 -26 -24 22 -25 23 -3 -38 -3
-39 -20 23 c-26 29 -32 28 -31 -8 1 -21 5 -29 14 -25 8 3 22 -5 33 -17 l18
-23 1 38 c0 43 5 45 38 15 l25 -23 -7 27 c-9 40 9 43 35 6 13 -18 26 -35 30
-38 3 -3 16 -21 29 -40 l22 -35 -6 30 c-4 17 -14 54 -23 83 -17 57 -10 80 14
45 17 -25 33 -30 33 -10 0 11 -72 77 -85 77 -3 0 -2 -12 1 -27z"/>
<path d="M663 270 c-26 -21 -30 -32 -8 -24 16 6 19 -3 15 -46 -2 -24 -1 -24
13 -5 22 28 30 14 19 -31 -20 -80 -22 -94 -13 -94 5 0 12 8 16 19 3 10 17 31
30 47 13 15 22 30 19 33 -2 2 -11 -4 -20 -15 -17 -21 -17 -17 3 79 6 31 6 32
-14 15 -27 -24 -31 -23 -35 11 -3 29 -3 29 -25 11z"/>
<path d="M780 211 c-7 -13 -7 -22 0 -26 5 -3 10 -19 10 -36 0 -29 0 -29 20 -9
21 21 27 35 10 25 -10 -6 -13 4 -12 43 1 27 -14 29 -28 3z"/>
<path d="M847 202 c-15 -16 -16 -20 -3 -25 9 -4 13 -14 9 -29 -5 -19 -3 -21 8
-10 26 24 31 11 25 -65 -4 -63 -3 -73 6 -53 17 37 26 180 12 180 -7 0 -15 -10
-19 -22 -7 -21 -8 -20 -14 11 -6 33 -6 33 -24 13z"/>
<path d="M1391 189 c-1 -20 5 -42 13 -48 8 -6 24 -38 36 -71 12 -33 24 -60 26
-60 1 0 3 32 2 70 0 39 -4 70 -9 70 -5 0 -9 -12 -10 -27 l0 -28 -14 30 c-8 17
-21 46 -29 65 l-14 35 -1 -36z"/>
<path d="M1325 167 c-8 -44 -20 -48 -30 -10 -5 21 -8 24 -16 12 -12 -19 -12
-42 1 -34 5 3 12 -6 16 -20 8 -34 20 -32 28 5 3 17 10 30 15 30 5 0 14 -13 21
-30 15 -37 25 -38 28 -3 1 14 -1 23 -5 20 -3 -4 -16 10 -29 30 l-22 38 -7 -38z"/>
<path d="M951 160 c-7 -21 -7 -30 1 -30 6 0 8 -12 5 -30 -8 -36 10 -41 19 -5
8 31 34 33 34 3 1 -22 1 -22 15 -4 19 26 24 19 32 -43 3 -28 9 -51 13 -51 12
0 22 53 11 59 -5 4 -11 33 -13 66 l-4 60 -14 -32 c-21 -48 -36 -40 -32 17 0
11 -3 10 -14 -4 -8 -11 -14 -24 -14 -29 0 -4 -5 -5 -10 -2 -6 4 -8 15 -5 25
10 32 -13 32 -24 0z"/>
<path d="M1106 155 c-9 -25 -7 -57 3 -51 11 7 21 -17 21 -52 0 -21 2 -24 10
-12 13 20 13 60 0 60 -5 0 -10 10 -10 23 0 12 -4 28 -9 35 -7 11 -10 10 -15
-3z"/>
<path d="M1160 146 c0 -13 6 -39 14 -57 12 -28 16 -31 21 -16 9 23 25 22 25
-2 0 -11 5 -32 11 -48 l12 -28 9 34 c6 22 6 36 0 40 -6 3 -13 27 -17 54 -9 56
-22 61 -31 11 -7 -39 -24 -29 -24 14 0 12 -4 22 -10 22 -5 0 -10 -11 -10 -24z"/>
</g>
</svg>
